<?xml version="1.0" encoding="iso-8859-1"?>
<!-- Generator: Adobe Illustrator 16.0.0, SVG Export Plug-In . SVG Version: 6.00 Build 0)  -->
<!DOCTYPE svg PUBLIC "-//W3C//DTD SVG 1.1//EN" "http://www.w3.org/Graphics/SVG/1.1/DTD/svg11.dtd">
<svg xmlns="http://www.w3.org/2000/svg" xmlns:xlink="http://www.w3.org/1999/xlink" version="1.1" id="Capa_1" x="0px" y="0px" width="512px" height="512px" viewBox="0 0 612 612" style="enable-background:new 0 0 612 612;" xml:space="preserve">
<g>
	<g>
		<path d="M428.4,592.3H181.7c-25.9,0-47.8-21.3-47.8-46.6v-1.2c0-25.1,22.3-47.2,47.8-47.2h52.1c3,0,5.3,2.4,5.3,5.3    c0,2.9-2.4,5.301-5.3,5.301h-52.1c-19.8,0-37.1,17-37.1,36.5v1.199c0,19.4,17,35.9,37.1,35.9h246.7    c19.1,0,33.399-15.4,33.399-35.9V544.4c0-20.5-14.7-36.5-33.399-36.5H303.6c-3,0-5.3-2.4-5.3-5.301V487.4c0-3,2.4-5.301,5.3-5.301    c3,0,5.3,2.4,5.3,5.301v9.8h119.5c24.8,0,44.1,20.7,44.1,47.2v1.199C472.6,572.3,453.6,592.3,428.4,592.3z" fill="#000000"/>
		<path d="M303.6,482.6c-3,0-5.3-2.399-5.3-5.3V428H49.6C22.2,428,0,407.7,0,382.7V66.9c0-25.6,22.7-47.2,49.6-47.2h515.2    c26,0,47.2,21.2,47.2,47.2v316.4c0,25.4-20.7,45.4-47.2,45.4h-177c-3,0-5.3-2.4-5.3-5.3c0-3,2.4-5.301,5.3-5.301h177    c20.5,0,36.5-15.199,36.5-34.699V66.9c0-20.1-16.399-36.5-36.5-36.5H49.6c-20.7,0-38.9,17-38.9,36.5v315.8    c0,19.1,17.5,34.7,38.9,34.7h254c3,0,5.3,2.399,5.3,5.3v54.6C308.9,480.2,306.5,482.6,303.6,482.6z" fill="#000000"/>
		<path d="M303.6,492.9c-3,0-5.3-2.4-5.3-5.301V477.9c0-3,2.4-5.301,5.3-5.301s5.3,2.4,5.3,5.301v9.699    C308.9,490.5,306.5,492.9,303.6,492.9z" fill="#000000"/>
	</g>
</g>
<g>
</g>
<g>
</g>
<g>
</g>
<g>
</g>
<g>
</g>
<g>
</g>
<g>
</g>
<g>
</g>
<g>
</g>
<g>
</g>
<g>
</g>
<g>
</g>
<g>
</g>
<g>
</g>
<g>
</g>
</svg>
