<?xml version="1.0" encoding="iso-8859-1"?>
<!-- Generator: Adobe Illustrator 16.0.0, SVG Export Plug-In . SVG Version: 6.00 Build 0)  -->
<!DOCTYPE svg PUBLIC "-//W3C//DTD SVG 1.1//EN" "http://www.w3.org/Graphics/SVG/1.1/DTD/svg11.dtd">
<svg xmlns="http://www.w3.org/2000/svg" xmlns:xlink="http://www.w3.org/1999/xlink" version="1.1" id="Capa_1" x="0px" y="0px" width="512px" height="512px" viewBox="0 0 749.525 749.525" style="enable-background:new 0 0 749.525 749.525;" xml:space="preserve">
<g>
	<path d="M609.113,749.525h-344.7c-3.7,0-6.7-3-6.7-6.7v-260.8c0-3.7,3-6.7,6.7-6.7h194.999c3.701,0,6.701,3,6.701,6.7v156.5   c0,3.7-3,6.7-6.701,6.7c-3.699,0-6.699-3-6.699-6.7v-149.8h-181.6v247.4h338c32.199,0,58.299-26.2,58.299-58.301v-394.6   l-292.599-267.6l-292.7,267.6v355.4c0,3.699-3,6.699-6.7,6.699c-3.7,0-6.7-3-6.7-6.699v-358.4c0-1.9,0.8-3.7,2.2-4.9l299.4-273.6   c2.5-2.3,6.5-2.3,9,0l299.301,273.6c1.4,1.3,2.199,3.1,2.199,4.9v397.6C680.812,717.325,648.613,749.525,609.113,749.525z" fill="#000000"/>
</g>
<g>
</g>
<g>
</g>
<g>
</g>
<g>
</g>
<g>
</g>
<g>
</g>
<g>
</g>
<g>
</g>
<g>
</g>
<g>
</g>
<g>
</g>
<g>
</g>
<g>
</g>
<g>
</g>
<g>
</g>
</svg>
