<?xml version="1.0" encoding="iso-8859-1"?>
<!-- Generator: Adobe Illustrator 16.0.0, SVG Export Plug-In . SVG Version: 6.00 Build 0)  -->
<!DOCTYPE svg PUBLIC "-//W3C//DTD SVG 1.1//EN" "http://www.w3.org/Graphics/SVG/1.1/DTD/svg11.dtd">
<svg xmlns="http://www.w3.org/2000/svg" xmlns:xlink="http://www.w3.org/1999/xlink" version="1.1" id="Capa_1" x="0px" y="0px" width="512px" height="512px" viewBox="0 0 792.063 792.062" style="enable-background:new 0 0 792.063 792.062;" xml:space="preserve">
<g>
	<g>
		<path d="M395.115,792.062c-1.2,0-2.5-0.3-3.601-1c-3.2-2-4.2-6.2-2.2-9.4c12.5-20.1,25.4-40.699,37.9-60.5    c75.8-120.399,154.1-244.899,202.8-378.3c8.6-23.1,14.2-47.9,16.6-73.8l2.301-23.7c1.899-49.8-9.601-97.1-32.301-133.3    c-25.199-40-63.6-66-111-75.4c-51.3-9.9-104.5,4.1-145.999,38.3c-41.601,34.4-65.5,84.2-65.5,136.9c0,3.8-3,6.8-6.8,6.8    c-3.8,0-6.8-3-6.8-6.8c0-56.7,25.7-110.4,70.4-147.4c44.7-36.9,102-51.9,157.3-41.2c51.3,10.1,92.7,38.3,119.899,81.5    c24.2,38.5,36.4,88.7,34.4,141.3c0,0.1,0,0.3,0,0.4l-2.3,23.9c-2.5,27.1-8.3,53.1-17.4,77.3    c-49.1,134.7-127.8,259.8-203.899,380.8c-12.5,19.899-25.4,40.399-37.9,60.5C399.614,790.963,397.415,792.062,395.115,792.062z" fill="#000000"/>
		<path d="M395.115,792.062c-2.301,0-4.5-1.1-5.801-3.2c-12.5-20.1-25.399-40.6-37.899-60.5c-76.101-121-154.9-246.1-204-380.9    c-24.4-66.7-24.1-138.6,0.9-202.2c25.7-65.4,75.7-116.8,140.9-144.7c3.5-1.5,7.5,0.1,8.9,3.6c1.5,3.5-0.1,7.4-3.6,8.9    c-125.7,53.8-183.4,195.6-134.2,329.8c48.6,133.4,126.9,257.9,202.7,378.3c12.5,19.9,25.4,40.4,37.9,60.5c2,3.2,1,7.4-2.2,9.4    C397.614,791.763,396.314,792.062,395.115,792.062z" fill="#000000"/>
		<path d="M395.115,325.062c-62.801,0-113.9-51.1-113.9-113.9c0-3.8,3-6.8,6.8-6.8s6.8,3,6.8,6.8c0,55.3,45,100.3,100.301,100.3    c55.3,0,100.3-45,100.3-100.3c0-26.9-11-52.9-30.301-71.4c-2.699-2.6-2.8-6.9-0.199-9.6c2.6-2.7,6.899-2.8,9.6-0.2    c21.9,21.1,34.5,50.7,34.5,81.2C509.014,273.962,457.915,325.062,395.115,325.062z" fill="#000000"/>
	</g>
</g>
<g>
</g>
<g>
</g>
<g>
</g>
<g>
</g>
<g>
</g>
<g>
</g>
<g>
</g>
<g>
</g>
<g>
</g>
<g>
</g>
<g>
</g>
<g>
</g>
<g>
</g>
<g>
</g>
<g>
</g>
</svg>
